# xmcd CD database file
#
# Track frame offsets:
#	150
#	28333
#	47688
#	71098
#	99636
#	119103
#	142923
#	165970
#	196550
#	208556
#	228957
#
# Disc length: 3218 seconds
#
# Revision: 1
# Processed by: cddbd v1.5.2PL0 Copyright (c) Steve Scherf et al.
# Submitted via: CDex 1.51
#
DISCID=940c900b
DTITLE=Zzebra - Zzebra
DYEAR=1974
DGENRE=Jazz
TTITLE0=CobraWoman
TTITLE1=Mr. J
TTITLE2=Mah Yong
TTITLE3=Ife
TTITLE4=Spanish Fly
TTITLE5=Amuso Fi
TTITLE6=Rainbow Train
TTITLE7=Hungry Horse
TTITLE8=Mr. J (Single Mix)(Bonus)
TTITLE9=Amuso Fi (Single Mix)(Bonus)
TTITLE10=Zardoz (Beethoven Opus 92)(Bonus)
EXTD=YEAR: 1974
EXTT0=
EXTT1=
EXTT2=
EXTT3=
EXTT4=
EXTT5=
EXTT6=
EXTT7=
EXTT8=
EXTT9=
EXTT10=
PLAYORDER=
